# xmcd CD database file
#
# Track frame offsets:
#	182
#	29745
#	50697
#	83967
#	101975
#	128842
#	155292
#	173135
#
# Disc length: 2675 seconds
#
# Revision: 1
# Processed by: cddbd v1.4PL0 Copyright (c) Steve Scherf et al.
# Submitted via: CDex 1.50
#
DISCID=6a0a7108
DTITLE=Andy Hamilton - Jamaica By Night
DYEAR=1994
DGENRE=Jazz
TTITLE0=Give Me The Highlife
TTITLE1=Nobody Knows The Trouble I've Seen
TTITLE2=Port Antonio
TTITLE3=Mango Time
TTITLE4=Everyday I Have The Blues
TTITLE5=Jamaica By Night
TTITLE6=Otrum
TTITLE7=Come Back Gal
EXTD=YEAR: 1994
EXTT0=
EXTT1=
EXTT2=
EXTT3=
EXTT4=
EXTT5=
EXTT6=
EXTT7=
PLAYORDER=
